<?xml version="1.0" encoding="UTF-8"?>
<svg id="Layer_2" xmlns="http://www.w3.org/2000/svg" version="1.1" viewBox="0 0 3247.3 718.1">
  <!-- Generator: Adobe Illustrator 29.8.1, SVG Export Plug-In . SVG Version: 2.1.1 Build 2)  -->
  <defs>
    <style>
      .st0 {
        isolation: isolate;
      }

      .st1 {
        fill: #c4aa10;
      }

      .st2 {
        fill: #fefefe;
      }
    </style>
  </defs>
  <g id="Layer_1-2">
    <g>
      <path class="st2" d="M602.7,145.5c0-2.3-.4-4.1-2.3-5.7-21.9-18.6-45.6-33.9-73-43.1-24.8-8.3-50.5-9.6-76.3-10.5-18.7-.6-37.2-1.9-55.1-7.7-25.7-8.3-46.4-24.2-65.1-43.1-5.7-5.7-5.9-5.9-11.3,0-31.6,33.7-70.2,51-116.7,50.9-16.3,0-32.6,1-48.8,3.2-39.9,5.6-73.5,24.3-103.6,50-2,1.7-2.8,3.4-2.7,6,.2,7.5.3,15,.4,22.5.4,43.2,3.8,86.1,10,128.8,7.1,48.4,18.5,95.6,36.2,141.2,25.1,64.6,62,121.2,113.6,167.9,34.9,31.6,74.6,56.3,114.7,80.4,2.1,1.3,3.5.9,5.4-.2,8.2-5.1,16.5-10.1,24.7-15.1,36.9-22.5,72.1-47.2,103-77.7,47.2-46.5,80.5-101.7,103.4-163.5,29.7-80.2,40.1-163.8,43.5-248.7v-35.5h0ZM593.4,186.4c-1.3,23.1-2.8,46.2-5.2,69.2-9.1,86.4-28.7,169.7-72.9,245.7-33.2,57.2-78.5,102.9-133.2,139.7-17.5,11.8-35.6,22.8-53.6,33.8-1.7,1-3,2.1-5.4.7-31.1-18.9-62.1-38-90.6-61-59.4-48-101.6-108.4-129.2-179.3-18.6-47.8-30.2-97.4-37.2-148.1-6.2-45.3-9-90.7-9-136.4s.5-4.9,2.8-6.9c26.4-21.9,55.6-38.2,89.8-44.2,16.3-2.8,32.7-3.4,49.2-4,22.8-.8,45.5-2.6,67-11.3,21.4-8.6,39.4-22,55.7-38,2.6-2.6,4-3,6.9-.2,20.5,20.1,43.5,36,71.7,43.4,16.7,4.4,33.8,5.5,50.9,6.1,22.3.8,44.6,1.7,66.2,7.9,27.7,7.9,51.7,22.6,73.6,40.9,1.5,1.2,2.3,2.6,2.3,4.6v37.5h.2Z"/>
      <path class="st2" d="M593.4,148.9c0-2.1-.8-3.4-2.3-4.6-21.9-18.3-45.9-33-73.6-40.9-21.7-6.2-43.9-7.1-66.2-7.9-17.1-.6-34.2-1.7-50.9-6-28.2-7.4-51.3-23.3-71.7-43.4-2.9-2.9-4.2-2.4-6.9.2-16.3,15.9-34.4,29.3-55.7,38-21.6,8.7-44.2,10.5-67,11.3-16.5.6-32.9,1.2-49.2,4-34.3,6-63.4,22.3-89.8,44.2-2.4,1.9-2.9,4.1-2.9,6.9,0,45.7,2.8,91.1,9,136.4,7,50.7,18.5,100.3,37.2,148.1,27.6,70.9,69.8,131.3,129.2,179.3,28.4,23,59.4,42.1,90.6,61,2.3,1.4,3.7.3,5.4-.7,18-11,36.1-22,53.6-33.8,54.7-36.8,100-82.5,133.2-139.7,44.1-76,63.8-159.3,72.9-245.7,2.4-23,3.9-46.1,5.2-69.2v-37.5h-.1ZM565.2,357c-4.7,19.9-10.5,39.5-17.2,58.8-.5,1.5-1.2,2.9-2.6,4.3v-38.1c0-3.5-.5-4.6-4.4-3.5-33,9.5-66.4,16.8-100.4,21.5-4,.6-3.6,2.9-3.6,5.6,0,59.6,0,119.3.1,178.9,0,3.8-1.1,6.5-3.9,9-16.4,14.7-33.5,28.4-51.9,40.6-1.8-1.8-1-4.1-1-6.2v-215.4c0-4.7-1.4-5.9-5.9-5.6-10.3.8-20.6,1.5-30.9,1.7-22.5.6-44.9,0-67.3-1.6-6.2-.5-6.2-.4-6.2,6v214.9c0,2,.9,4.3-1,6.2-18.9-12.6-36.5-26.7-53.4-41.9-2.4-2.2-2.4-4.5-2.4-7.2v-184.2c-7.9,4.1-15.3,7.9-22.7,11.7-23.3,12.1-47.2,23-71.2,33.5-3.5,1.5-4.9,1.1-6.5-2.6-17.2-41.5-28.9-84.6-36.5-128.8-9.3-53.4-13.2-107.3-13.4-161.5,0-2.9.7-4.9,3.1-6.8,26.7-21.7,56.3-37.1,90.8-41.9,17.4-2.4,34.8-3,52.3-3.3,43.6-.9,81.1-16.3,112.4-46.5,2.7-2.6,4.1-3,7.1,0,22.8,21.5,48.9,37.2,80.1,43.1,18.1,3.4,36.4,4.1,54.7,4.4,45.1.6,85.1,14.8,119.9,43.7,2.8,2.3,4,4.6,4,8.3-.5,68.4-6.4,136.3-22.2,203h0Z"/>
      <g>
        <path class="st1" d="M314.1,174v117.7c-6.4-5.1-4.8-9.5-4.8-13.2-.1-32-.2-64,0-96,0-7-1.3-10.2-9.4-10.3-16.2-.3-20.7-5.8-20.8-22.3v-39.3c.1-13.3,5.4-19.7,18.4-20.2,16.9-.6,33.9-.6,50.9,0,12.5.4,18.5,7.4,18.7,20.3.2,13.5.2,27,0,40.5-.2,14.5-5.7,20.3-19.9,21.3-8.4.6-15.8,12.4-12.5,20.6,3.3,8.1,4.1,15.5-3.3,21.8,5.2,6-6.7,13.8,2.6,20,5.6,3.8,3.3,10.8,2.1,16.1-1.3,5.9-4.1,11.1.2,17.3,1.6,2.3,1,6.9.2,10.2-1.7,6.8-7.1,10.6-13.7,10.2-7.4-.4-4-7.2-4.1-10.9-.3-30.5-.2-60.9-.2-91.4v-12.3h-4.4ZM324.3,140.4c4.3-1.2,7.9-4,7.7-9.3-.3-5.8-4.1-9.2-10-8.6-5.2.6-8.3,4.2-7.8,9.6.5,5.2,4,8,10.1,8.3h0Z"/>
        <path class="st1" d="M349.8,260.3c-2.9-10-5.7-19.6-8.3-29.2-.7-2.7-3.6-6.6.6-8,3.8-1.3,2.4,4.8,6.3,6.1-1.6-12.7-8.2-24-7.3-36.6.1-1.8-1.3-4.2-.5-5.4,1.9-3.1-1.4-9.8,5.7-9.4,5.7.2,5.4,5.4,7,9.1,1.9,4.3-1.7,8,.6,13,5.5,11.7,8.9,24.4,13.1,36.6,1.3,3.6,3.1,7.2,2.3,11.2-.8,4.1-3.4,6.9-7.1,8.4-4.7,2-5.6-2.7-7.9-4.9-2.6,2.4,1.3,7.1-4.6,9.1h0ZM349.4,234.1c-1.5,4.8.6,8,2.9,12.2,1.4-5.2-.6-8.4-2.9-12.2Z"/>
      </g>
      <g>
        <polygon class="st2" points="223.8 112.5 237 142.8 269.8 146 245.1 167.9 252.2 200.2 223.8 183.5 195.3 200.2 202.4 167.9 177.7 146 210.5 142.8 223.8 112.5"/>
        <polygon class="st2" points="119.6 139.2 131.1 165.5 159.7 168.3 138.2 187.4 144.4 215.4 119.6 200.9 94.9 215.4 101 187.4 79.6 168.3 108.1 165.5 119.6 139.2"/>
        <polygon class="st2" points="429.4 112.5 416.2 142.8 383.3 146 408 167.9 400.9 200.2 429.4 183.5 457.8 200.2 450.7 167.9 475.5 146 442.6 142.8 429.4 112.5"/>
        <polygon class="st2" points="533.5 139.2 522 165.5 493.4 168.3 514.9 187.4 508.7 215.4 533.5 200.9 558.2 215.4 552.1 187.4 573.5 168.3 545 165.5 533.5 139.2"/>
      </g>
    </g>
  </g>
  <g class="st0">
    <g class="st0">
      <path class="st2" d="M738.2,578.8v-31.4l-31.4-31.4v-62.7l31.4-31.4h188.2v31.4h31.4v-188.2h-219.6v-125.5h31.4v94.1h219.6v250.9h-62.7l-31.4-31.4h-156.8v62.7l31.4,31.4h31.4v31.4h62.7l31.4,31.4h94.1v-31.4h94.1l31.4-31.4v-31.4l31.4-31.4v-31.4l31.4,31.4-31.4,31.4v31.4l-31.4,31.4v31.4h-94.1l-31.4,31.4h-125.5v-31.4h-62.7l-31.4-31.4h-31.5ZM1145.9,202.5v-62.7l31.4,31.4v31.4h-31.4ZM1145.9,265.2v-62.7l31.4,31.4v31.4h-31.4ZM1145.9,327.9v-62.7l31.4,31.4v31.4h-31.4ZM1145.9,390.6v-62.7l31.4,31.4v31.4h-31.4ZM1145.9,453.4v-62.7l31.4,31.4v31.4h-31.4Z"/>
      <path class="st2" d="M1182.8,610.2v-125.5h31.4v-62.7l31.4-31.4v-94.1h31.4v-62.7l31.4-31.4v-31.4l31.4-31.4v-31.4h188.2l31.4,31.4h31.4v94.1l31.4,31.4v62.7h31.4v94.1l31.4,31.4v62.7h31.4v31.4h-62.7v-94.1l-31.4-31.4v-62.7h-31.4v-94.1l-31.4-31.4v-62.7h-31.4v-31.4h-156.8l-31.4,31.4v31.4l-31.4,31.4v94.1h-31.4v62.7l-31.4,31.4v94.1h-31.4v62.7h125.5v-31.4l31.4-31.4h156.8v31.4l31.4,31.4h125.5v-31.4l31.4,31.4-31.4,31.4h-156.8v-31.4l-31.4-31.4h-125.5v31.4l-31.4,31.4h-157ZM1402.4,422v-125.5l31.4,31.4v-31.4l31.4,31.4h31.4v62.7l-31.4,31.4h-62.8ZM1433.8,390.6h31.4v-31.4h-31.4v31.4Z"/>
      <path class="st2" d="M1740.4,610.2V108.4h313.6l31.4,31.4h62.7v31.4l31.4,31.4h31.4v31.4h-62.7v-31.4l-31.4-31.4h-62.7v-31.4h-282.3v439.1h313.6v-31.4h62.7v-62.7h31.4l31.4,31.4h-31.4v62.7h-62.7l-31.4,31.4h-345,0ZM1897.3,484.7v-250.9h94.1l31.4,31.4v31.4l31.4,31.4v62.7l-31.4,31.4v31.4l-31.4,31.4h-94.1v-.2ZM1928.6,453.4h62.7v-31.4l31.4-31.4v-62.7l-31.4-31.4v-31.4h-62.7v188.2h0ZM2179.6,296.5v-62.7l31.4,31.4v31.4h-31.4ZM2179.6,359.3v-62.7l31.4,31.4v31.4h-31.4ZM2179.6,422v-62.7l31.4,31.4v31.4h-31.4ZM2179.6,484.7v-62.7l31.4,31.4v31.4h-31.4Z"/>
      <path class="st2" d="M2256.2,610.2V108.4h313.6l31.4,31.4h62.7v31.4l31.4,31.4h31.4v31.4h-62.7v-31.4l-31.4-31.4h-62.7v-31.4h-282.3v439.1h313.6v-31.4h62.7v-62.7h31.4l31.4,31.4h-31.4v62.7h-62.7l-31.4,31.4h-345ZM2413,484.7v-250.9h94.1l31.4,31.4v31.4l31.4,31.4v62.7l-31.4,31.4v31.4l-31.4,31.4h-94.1v-.2ZM2444.4,453.4h62.7v-31.4l31.4-31.4v-62.7l-31.4-31.4v-31.4h-62.7v188.2h0ZM2695.3,296.5v-62.7l31.4,31.4v31.4h-31.4ZM2695.3,359.3v-62.7l31.4,31.4v31.4h-31.4ZM2695.3,422v-62.7l31.4,31.4v31.4h-31.4ZM2695.3,484.7v-62.7l31.4,31.4v31.4h-31.4Z"/>
      <path class="st2" d="M2772,610.2V108.4h156.8l31.4,31.4v313.6h94.1l-31.4,31.4h-94.1V139.7h-125.5v439.1l-31.4,31.4h0ZM2803.4,610.2v-31.4h345v-31.4l31.4,31.4-31.4,31.4h-345ZM3054.3,484.7v-31.4h62.7l-31.4,31.4h-31.4,0ZM3117,484.7v-31.4h62.7v31.4h-62.7ZM3148.4,547.5v-62.7l31.4,31.4v31.4h-31.4Z"/>
    </g>
  </g>
  <g class="st0">
    <g class="st0">
      <path class="st2" d="M799.6,107.4h91.5c1,0,1.8.4,2.5,1.1s1.1,1.5,1.1,2.5v21.3c0,1-.4,1.8-1.1,2.5-.7.7-1.5,1.1-2.5,1.1h-28.5v60.7c0,1-.4,1.8-1.1,2.5-.7.7-1.5,1.1-2.5,1.1h-27.3c-1,0-1.8-.4-2.5-1.1-.7-.7-1.1-1.5-1.1-2.5v-60.7h-28.5c-1,0-1.8-.4-2.5-1.1-.7-.7-1.1-1.5-1.1-2.5v-21.3c0-1,.4-1.8,1.1-2.5.7-.7,1.5-1.1,2.5-1.1h0Z"/>
      <path class="st2" d="M974.9,107.4h27.3c1,0,1.8.4,2.5,1.1s1.1,1.5,1.1,2.5v85.7c0,1-.4,1.8-1.1,2.5-.7.7-1.5,1.1-2.5,1.1h-27.3c-1,0-1.8-.4-2.5-1.1-.7-.7-1.1-1.5-1.1-2.5v-28.2h-26.5v28.2c0,1-.4,1.8-1.1,2.5-.7.7-1.5,1.1-2.5,1.1h-27.3c-1,0-1.8-.3-2.5-1s-1.1-1.5-1.1-2.6v-85.7c0-1,.4-1.8,1.1-2.5.7-.7,1.5-1.1,2.5-1.1h27.3c1,0,1.8.4,2.5,1.1s1.1,1.5,1.1,2.5v27.2h26.5v-27.2c0-1,.4-1.8,1.1-2.5.7-.7,1.5-1.1,2.5-1.1Z"/>
      <path class="st2" d="M1060.8,174.3h52.9c1,0,1.8.4,2.5,1.1.7.7,1.1,1.5,1.1,2.5v18.7c0,1-.4,1.8-1.1,2.5s-1.5,1.1-2.5,1.1h-83.8c-1,0-1.8-.4-2.5-1.1-.7-.7-1.1-1.5-1.1-2.5v-85.7c0-1,.4-1.8,1.1-2.5s1.5-1.1,2.5-1.1h82.5c1,0,1.8.4,2.5,1.1s1.1,1.5,1.1,2.5v18.7c0,1-.4,1.8-1.1,2.5s-1.5,1.1-2.5,1.1h-51.6v8.4h44.3c1,0,1.8.4,2.5,1.1.7.7,1.1,1.5,1.1,2.5v17.2c0,1-.4,1.8-1.1,2.5s-1.5,1.1-2.5,1.1h-44.3v8.4h0Z"/>
    </g>
  </g>
</svg>