<?xml version="1.0" encoding="UTF-8"?>
<svg id="Layer_2" xmlns="http://www.w3.org/2000/svg" version="1.1" viewBox="0 0 3247.3 718.1">
  <!-- Generator: Adobe Illustrator 29.7.1, SVG Export Plug-In . SVG Version: 2.1.1 Build 8)  -->
  <defs>
    <style>
      .st0 {
        font-family: RubikMonoOne-Regular, 'Rubik Mono One';
        font-size: 132.6px;
      }

      .st0, .st1, .st2 {
        fill: #070721;
      }

      .st2 {
        font-family: RubikIso-Regular, 'Rubik Iso';
        font-size: 697px;
      }

      .st3 {
        fill: #c4aa10;
      }
    </style>
  </defs>
  <g id="Layer_1-2">
    <g>
      <path class="st1" d="M602.7,145.5c0-2.3-.4-4.1-2.3-5.7-21.9-18.6-45.6-33.9-73-43.1-24.8-8.3-50.5-9.6-76.3-10.5-18.7-.6-37.2-1.9-55.1-7.7-25.7-8.3-46.4-24.2-65.1-43.1-5.7-5.7-5.9-5.9-11.3,0-31.6,33.7-70.2,51-116.7,50.9-16.3,0-32.6,1-48.8,3.2-39.9,5.6-73.5,24.3-103.6,50-2,1.7-2.8,3.4-2.7,6,.2,7.5.3,15,.4,22.5.4,43.2,3.8,86.1,10,128.8,7.1,48.4,18.5,95.6,36.2,141.2,25.1,64.6,62,121.2,113.6,167.9,34.9,31.6,74.6,56.3,114.7,80.4,2.1,1.3,3.5.9,5.4-.2,8.2-5.1,16.5-10.1,24.7-15.1,36.9-22.5,72.1-47.2,103-77.7,47.2-46.5,80.5-101.7,103.4-163.5,29.7-80.2,40.1-163.8,43.5-248.7,0-11.8,0-23.6,0-35.5h0ZM593.4,186.4c-1.3,23.1-2.8,46.2-5.2,69.2-9.1,86.4-28.7,169.7-72.9,245.7-33.2,57.2-78.5,102.9-133.2,139.7-17.5,11.8-35.6,22.8-53.6,33.8-1.7,1-3,2.1-5.4.7-31.1-18.9-62.1-38-90.6-61-59.4-48-101.6-108.4-129.2-179.3-18.6-47.8-30.2-97.4-37.2-148.1-6.2-45.3-9-90.7-9-136.4,0-2.8.5-4.9,2.8-6.9,26.4-21.9,55.6-38.2,89.8-44.2,16.3-2.8,32.7-3.4,49.2-4,22.8-.8,45.5-2.6,67-11.3,21.4-8.6,39.4-22,55.7-38,2.6-2.6,4-3,6.9-.2,20.5,20.1,43.5,36,71.7,43.4,16.7,4.4,33.8,5.5,50.9,6.1,22.3.8,44.6,1.7,66.2,7.9,27.7,7.9,51.7,22.6,73.6,40.9,1.5,1.2,2.3,2.6,2.3,4.6,0,12.5,0,25,0,37.5h0Z"/>
      <path class="st1" d="M593.4,148.9c0-2.1-.8-3.4-2.3-4.6-21.9-18.3-45.9-33-73.6-40.9-21.7-6.2-43.9-7.1-66.2-7.9-17.1-.6-34.2-1.7-50.9-6-28.2-7.4-51.3-23.3-71.7-43.4-2.9-2.9-4.2-2.4-6.9.2-16.3,15.9-34.4,29.3-55.7,38-21.6,8.7-44.2,10.5-67,11.3-16.5.6-32.9,1.2-49.2,4-34.3,6-63.4,22.3-89.8,44.2-2.4,1.9-2.9,4.1-2.9,6.9,0,45.7,2.8,91.1,9,136.4,7,50.7,18.5,100.3,37.2,148.1,27.6,70.9,69.8,131.3,129.2,179.3,28.4,23,59.4,42.1,90.6,61,2.3,1.4,3.7.3,5.4-.7,18-11,36.1-22,53.6-33.8,54.7-36.8,100-82.5,133.2-139.7,44.1-76,63.8-159.3,72.9-245.7,2.4-23,3.9-46.1,5.2-69.2,0-12.5,0-25,0-37.5h0ZM565.2,357c-4.7,19.9-10.5,39.5-17.2,58.8-.5,1.5-1.2,2.9-2.6,4.3,0-12.7-.1-25.4,0-38.1,0-3.5-.5-4.6-4.4-3.5-33,9.5-66.4,16.8-100.4,21.5-4,.6-3.6,2.9-3.6,5.6,0,59.6,0,119.3.1,178.9,0,3.8-1.1,6.5-3.9,9-16.4,14.7-33.5,28.4-51.9,40.6-1.8-1.8-1-4.1-1-6.2,0-71.8,0-143.6,0-215.4,0-4.7-1.4-5.9-5.9-5.6-10.3.8-20.6,1.5-30.9,1.7-22.5.6-44.9,0-67.3-1.6-6.2-.5-6.2-.4-6.2,6,0,71.6,0,143.3,0,214.9,0,2,.9,4.3-1,6.2-18.9-12.6-36.5-26.7-53.4-41.9-2.4-2.2-2.4-4.5-2.4-7.2v-184.2c-7.9,4.1-15.3,7.9-22.7,11.7-23.3,12.1-47.2,23-71.2,33.5-3.5,1.5-4.9,1.1-6.5-2.6-17.2-41.5-28.9-84.6-36.5-128.8-9.3-53.4-13.2-107.3-13.4-161.5,0-2.9.7-4.9,3.1-6.8,26.7-21.7,56.3-37.1,90.8-41.9,17.4-2.4,34.8-3,52.3-3.3,43.6-.9,81.1-16.3,112.4-46.5,2.7-2.6,4.1-3,7.1-.1,22.8,21.5,48.9,37.2,80.1,43.1,18.1,3.4,36.4,4.1,54.7,4.4,45.1.6,85.1,14.8,119.9,43.7,2.8,2.3,4,4.6,4,8.3-.5,68.4-6.4,136.3-22.2,203h0Z"/>
      <g>
        <path class="st3" d="M314.1,174v117.7c-6.4-5.1-4.8-9.5-4.8-13.2-.1-32-.2-64,0-96,0-7-1.3-10.2-9.4-10.3-16.2-.3-20.7-5.8-20.8-22.3,0-13.1,0-26.2,0-39.3.1-13.3,5.4-19.7,18.4-20.2,16.9-.6,33.9-.6,50.9,0,12.5.4,18.5,7.4,18.7,20.3.2,13.5.2,27,0,40.5-.2,14.5-5.7,20.3-19.9,21.3-8.4.6-15.8,12.4-12.5,20.6,3.3,8.1,4.1,15.5-3.3,21.8,5.2,6-6.7,13.8,2.6,20,5.6,3.8,3.3,10.8,2.1,16.1-1.3,5.9-4.1,11.1.2,17.3,1.6,2.3,1,6.9.2,10.2-1.7,6.8-7.1,10.6-13.7,10.2-7.4-.4-4-7.2-4.1-10.9-.3-30.5-.2-60.9-.2-91.4v-12.3c-1.5,0-2.9,0-4.4,0h0ZM324.3,140.4c4.3-1.2,7.9-4,7.7-9.3-.3-5.8-4.1-9.2-10-8.6-5.2.6-8.3,4.2-7.8,9.6.5,5.2,4,8,10.1,8.3Z"/>
        <path class="st3" d="M349.8,260.3c-2.9-10-5.7-19.6-8.3-29.2-.7-2.7-3.6-6.6.6-8,3.8-1.3,2.4,4.8,6.3,6.1-1.6-12.7-8.2-24-7.3-36.6.1-1.8-1.3-4.2-.5-5.4,1.9-3.1-1.4-9.8,5.7-9.4,5.7.2,5.4,5.4,7,9.1,1.9,4.3-1.7,8,.6,13,5.5,11.7,8.9,24.4,13.1,36.6,1.3,3.6,3.1,7.2,2.3,11.2-.8,4.1-3.4,6.9-7.1,8.4-4.7,2-5.6-2.7-7.9-4.9-2.6,2.4,1.3,7.1-4.6,9.1h0ZM349.4,234.1c-1.5,4.8.6,8,2.9,12.2,1.4-5.2-.6-8.4-2.9-12.2Z"/>
      </g>
      <g>
        <polygon class="st1" points="223.8 112.5 237 142.8 269.8 146 245.1 167.9 252.2 200.2 223.8 183.5 195.3 200.2 202.4 167.9 177.7 146 210.5 142.8 223.8 112.5"/>
        <polygon class="st1" points="119.6 139.2 131.1 165.5 159.7 168.3 138.2 187.4 144.4 215.4 119.6 200.9 94.9 215.4 101 187.4 79.6 168.3 108.1 165.5 119.6 139.2"/>
        <polygon class="st1" points="429.4 112.5 416.2 142.8 383.3 146 408 167.9 400.9 200.2 429.4 183.5 457.8 200.2 450.7 167.9 475.5 146 442.6 142.8 429.4 112.5"/>
        <polygon class="st1" points="533.5 139.2 522 165.5 493.4 168.3 514.9 187.4 508.7 215.4 533.5 200.9 558.2 215.4 552.1 187.4 573.5 168.3 545 165.5 533.5 139.2"/>
      </g>
    </g>
  </g>
  <text class="st2" transform="translate(706.8 610.2)"><tspan x="0" y="0">JADDL</tspan></text>
  <text class="st0" transform="translate(789 200.2)"><tspan x="0" y="0">THE</tspan></text>
</svg>