<?xml version="1.0" encoding="UTF-8"?>
<svg id="Layer_2" data-name="Layer 2" xmlns="http://www.w3.org/2000/svg" viewBox="0 0 555 656.01">
  <defs>
    <style>
      .cls-1 {
        fill: #ecf2b6;
      }

      .cls-2 {
        fill: #fff;
      }

      .cls-3 {
        fill: #fefefe;
      }
    </style>
  </defs>
  <g id="Layer_1-2" data-name="Layer 1">
    <g>
      <path class="cls-2" d="M555,114.52c.01-2.28-.37-4.05-2.28-5.67-21.86-18.56-45.56-33.91-72.98-43.12-24.82-8.33-50.53-9.64-76.31-10.51-18.67-.63-37.21-1.94-55.15-7.73-25.72-8.3-46.4-24.2-65.07-43.13-5.67-5.74-5.86-5.86-11.32-.04-31.62,33.74-70.25,50.99-116.73,50.86-16.28-.05-32.6.95-48.78,3.24-39.89,5.63-73.48,24.26-103.64,50.05-1.96,1.67-2.82,3.4-2.73,5.98.25,7.48.32,14.98.4,22.47.43,43.16,3.76,86.09,10.04,128.8,7.11,48.36,18.46,95.62,36.23,141.23,25.14,64.58,62.05,121.18,113.64,167.88,34.89,31.59,74.57,56.28,114.68,80.38,2.14,1.28,3.49.92,5.36-.24,8.19-5.1,16.47-10.06,24.71-15.07,36.94-22.45,72.1-47.25,102.99-77.71,47.16-46.5,80.54-101.71,103.42-163.55,29.68-80.23,40.14-163.79,43.49-248.66,0-11.82-.04-23.64.03-35.46ZM545.61,155.36c-1.29,23.13-2.77,46.21-5.19,69.22-9.07,86.42-28.73,169.71-72.88,245.74-33.23,57.24-78.53,102.93-133.24,139.69-17.54,11.78-35.56,22.79-53.61,33.76-1.68,1.02-3.05,2.07-5.36.67-31.15-18.93-62.15-38.04-90.58-61.02-59.4-48.03-101.57-108.42-129.19-179.3-18.62-47.81-30.16-97.39-37.15-148.13-6.24-45.26-8.96-90.73-9.04-136.39,0-2.83.49-4.94,2.85-6.89,26.44-21.89,55.58-38.18,89.84-44.15,16.29-2.83,32.74-3.42,49.21-4,22.84-.81,45.47-2.62,67.02-11.32,21.36-8.63,39.41-22.03,55.72-37.97,2.64-2.59,3.97-3.03,6.89-.16,20.46,20.11,43.52,36,71.74,43.37,16.71,4.37,33.79,5.46,50.92,6.05,22.31.77,44.58,1.7,66.24,7.86,27.71,7.88,51.65,22.57,73.59,40.87,1.5,1.25,2.28,2.57,2.27,4.64-.1,12.49-.05,24.97-.05,37.46Z"/>
      <path class="cls-2" d="M545.66,117.9c.01-2.07-.77-3.39-2.27-4.64-21.94-18.3-45.88-32.99-73.59-40.87-21.66-6.16-43.93-7.09-66.24-7.86-17.13-.59-34.21-1.68-50.92-6.05-28.22-7.37-51.28-23.26-71.74-43.37-2.92-2.87-4.25-2.43-6.89.16-16.31,15.94-34.36,29.34-55.72,37.97-21.55,8.7-44.18,10.51-67.02,11.32-16.47.58-32.92,1.17-49.21,4-34.26,5.97-63.4,22.26-89.84,44.15-2.36,1.95-2.85,4.06-2.85,6.89.08,45.66,2.8,91.13,9.04,136.39,6.99,50.74,18.53,100.32,37.15,148.13,27.62,70.88,69.79,131.27,129.19,179.3,28.43,22.98,59.43,42.09,90.58,61.02,2.31,1.4,3.68.35,5.36-.67,18.05-10.97,36.07-21.98,53.61-33.76,54.71-36.76,100.01-82.45,133.24-139.69,44.15-76.03,63.81-159.32,72.88-245.74,2.42-23.01,3.9-46.09,5.19-69.22,0-12.49-.05-24.97.05-37.46ZM517.5,325.95c-4.72,19.91-10.51,39.5-17.23,58.81-.53,1.5-1.23,2.94-2.65,4.26,0-12.69-.1-25.39.06-38.09.04-3.51-.45-4.61-4.38-3.47-32.95,9.5-66.39,16.82-100.37,21.55-4.04.57-3.62,2.87-3.62,5.56.02,59.64-.02,119.28.1,178.93.01,3.83-1.09,6.46-3.93,8.99-16.41,14.65-33.54,28.37-51.87,40.57-1.84-1.8-.97-4.1-.97-6.15-.05-71.8-.09-143.6.07-215.39.01-4.73-1.35-5.93-5.86-5.57-10.27.83-20.56,1.47-30.85,1.72-22.46.56-44.91.08-67.33-1.61-6.22-.46-6.24-.37-6.24,5.96,0,71.63.01,143.26-.04,214.89,0,2.05.88,4.35-.98,6.15-18.87-12.58-36.51-26.73-53.35-41.91-2.38-2.15-2.36-4.5-2.36-7.16,0-59.31,0-118.61,0-177.92v-6.31c-7.88,4.07-15.3,7.88-22.7,11.71-23.31,12.08-47.16,23.03-71.22,33.53-3.49,1.52-4.9,1.12-6.46-2.61-17.25-41.49-28.86-84.58-36.55-128.75-9.31-53.42-13.23-107.31-13.42-161.5-.01-2.91.74-4.87,3.06-6.76,26.71-21.71,56.28-37.07,90.78-41.89,17.36-2.42,34.84-2.97,52.29-3.34,43.59-.95,81.07-16.27,112.43-46.49,2.71-2.61,4.11-2.96,7.08-.15,22.81,21.54,48.85,37.19,80.13,43.06,18.07,3.39,36.38,4.14,54.67,4.37,45.14.57,85.12,14.81,119.9,43.67,2.81,2.34,4.03,4.6,4,8.35-.49,68.42-6.39,136.25-22.2,202.99Z"/>
      <g>
        <path class="cls-1" d="M271.17,103.66v62.65c-3.39-2.7-2.53-5.07-2.54-7.04-.07-17.03-.12-34.06.02-51.09.03-3.72-.68-5.41-5.01-5.48-8.63-.15-11.04-3.09-11.06-11.87-.02-6.98-.05-13.95,0-20.93.06-7.08,2.9-10.5,9.77-10.74,9.02-.32,18.06-.32,27.08,0,6.67.23,9.83,3.92,9.93,10.8.1,7.18.09,14.36,0,21.54-.1,7.74-3.01,10.78-10.62,11.35-4.45.33-8.4,6.61-6.63,10.95,1.77,4.33,2.16,8.24-1.77,11.59,2.76,3.19-3.56,7.35,1.37,10.63,3,2,1.75,5.73,1.12,8.57-.7,3.16-2.2,5.93.13,9.2.87,1.23.53,3.67.1,5.41-.9,3.64-3.78,5.62-7.27,5.43-3.93-.22-2.15-3.81-2.17-5.81-.17-16.21-.09-32.42-.09-48.63v-6.54c-.78.01-1.57.02-2.35.04ZM276.56,85.79c2.27-.62,4.23-2.11,4.08-4.95-.17-3.08-2.16-4.91-5.32-4.56-2.79.31-4.44,2.25-4.15,5.1.28,2.78,2.14,4.27,5.39,4.41Z"/>
        <path class="cls-1" d="M290.18,149.62c-1.52-5.34-3.01-10.42-4.4-15.53-.39-1.45-1.91-3.5.3-4.26,2-.68,1.3,2.58,3.36,3.24-.84-6.74-4.35-12.77-3.88-19.51.07-.97-.67-2.23-.27-2.88,1.03-1.67-.74-5.2,3.01-5.03,3.02.13,2.86,2.87,3.73,4.87.99,2.29-.91,4.27.34,6.92,2.92,6.23,4.72,12.97,6.99,19.51.67,1.93,1.63,3.81,1.22,5.94-.42,2.19-1.8,3.65-3.79,4.49-2.49,1.05-2.96-1.42-4.18-2.61-1.39,1.27.71,3.77-2.43,4.86ZM289.97,135.65c-.78,2.58.3,4.27,1.54,6.49.73-2.75-.3-4.45-1.54-6.49Z"/>
      </g>
      <g>
        <polygon class="cls-3" points="198.63 83.73 208.94 107.34 234.57 109.85 215.31 126.94 220.84 152.1 198.63 139.06 176.42 152.1 181.95 126.94 162.69 109.85 188.32 107.34 198.63 83.73"/>
        <polygon class="cls-3" points="117.42 96.35 126.38 116.86 148.65 119.04 131.91 133.9 136.72 155.76 117.42 144.43 98.11 155.76 102.92 133.9 86.18 119.04 108.46 116.86 117.42 96.35"/>
        <polygon class="cls-3" points="359 83.73 348.7 107.34 323.06 109.85 342.33 126.94 336.79 152.1 359 139.06 381.22 152.1 375.68 126.94 394.95 109.85 369.31 107.34 359 83.73"/>
        <polygon class="cls-3" points="440.22 96.35 431.26 116.86 408.98 119.04 425.72 133.9 420.91 155.76 440.22 144.43 459.52 155.76 454.71 133.9 471.45 119.04 449.18 116.86 440.22 96.35"/>
      </g>
    </g>
  </g>
</svg>