<?xml version="1.0" encoding="UTF-8"?>
<svg id="Layer_2" xmlns="http://www.w3.org/2000/svg" version="1.1" viewBox="0 0 555 656">
  <!-- Generator: Adobe Illustrator 29.7.1, SVG Export Plug-In . SVG Version: 2.1.1 Build 8)  -->
  <defs>
    <style>
      .st0 {
        fill: #8e8c3c;
      }

      .st1 {
        fill: #191919;
      }
    </style>
  </defs>
  <g id="Layer_1-2">
    <g>
      <path class="st1" d="M555,114.5c0-2.3-.4-4.1-2.3-5.7-21.9-18.6-45.6-33.9-73-43.1-24.8-8.3-50.5-9.6-76.3-10.5-18.7-.6-37.2-1.9-55.1-7.7-25.7-8.3-46.4-24.2-65.1-43.1-5.7-5.7-5.9-5.9-11.3,0-31.6,33.7-70.2,51-116.7,50.9-16.3,0-32.6,1-48.8,3.2-39.9,5.6-73.5,24.3-103.6,50-2,1.7-2.8,3.4-2.7,6,.2,7.5.3,15,.4,22.5.4,43.2,3.8,86.1,10,128.8,7.1,48.4,18.5,95.6,36.2,141.2,25.1,64.6,62,121.2,113.6,167.9,34.9,31.6,74.6,56.3,114.7,80.4,2.1,1.3,3.5.9,5.4-.2,8.2-5.1,16.5-10.1,24.7-15.1,36.9-22.5,72.1-47.2,103-77.7,47.2-46.5,80.5-101.7,103.4-163.5,29.7-80.2,40.1-163.8,43.5-248.7,0-11.8,0-23.6,0-35.5h0ZM545.6,155.4c-1.3,23.1-2.8,46.2-5.2,69.2-9.1,86.4-28.7,169.7-72.9,245.7-33.2,57.2-78.5,102.9-133.2,139.7-17.5,11.8-35.6,22.8-53.6,33.8-1.7,1-3,2.1-5.4.7-31.1-18.9-62.1-38-90.6-61-59.4-48-101.6-108.4-129.2-179.3-18.6-47.8-30.2-97.4-37.2-148.1-6.2-45.3-9-90.7-9-136.4,0-2.8.5-4.9,2.8-6.9,26.4-21.9,55.6-38.2,89.8-44.2,16.3-2.8,32.7-3.4,49.2-4,22.8-.8,45.5-2.6,67-11.3,21.4-8.6,39.4-22,55.7-38,2.6-2.6,4-3,6.9-.2,20.5,20.1,43.5,36,71.7,43.4,16.7,4.4,33.8,5.5,50.9,6.1,22.3.8,44.6,1.7,66.2,7.9,27.7,7.9,51.7,22.6,73.6,40.9,1.5,1.2,2.3,2.6,2.3,4.6,0,12.5,0,25,0,37.5h0Z"/>
      <path class="st1" d="M545.7,117.9c0-2.1-.8-3.4-2.3-4.6-21.9-18.3-45.9-33-73.6-40.9-21.7-6.2-43.9-7.1-66.2-7.9-17.1-.6-34.2-1.7-50.9-6-28.2-7.4-51.3-23.3-71.7-43.4-2.9-2.9-4.2-2.4-6.9.2-16.3,15.9-34.4,29.3-55.7,38-21.6,8.7-44.2,10.5-67,11.3-16.5.6-32.9,1.2-49.2,4-34.3,6-63.4,22.3-89.8,44.2-2.4,1.9-2.9,4.1-2.9,6.9,0,45.7,2.8,91.1,9,136.4,7,50.7,18.5,100.3,37.2,148.1,27.6,70.9,69.8,131.3,129.2,179.3,28.4,23,59.4,42.1,90.6,61,2.3,1.4,3.7.3,5.4-.7,18-11,36.1-22,53.6-33.8,54.7-36.8,100-82.5,133.2-139.7,44.1-76,63.8-159.3,72.9-245.7,2.4-23,3.9-46.1,5.2-69.2,0-12.5,0-25,0-37.5h0ZM517.5,326c-4.7,19.9-10.5,39.5-17.2,58.8-.5,1.5-1.2,2.9-2.6,4.3,0-12.7-.1-25.4,0-38.1,0-3.5-.5-4.6-4.4-3.5-33,9.5-66.4,16.8-100.4,21.5-4,.6-3.6,2.9-3.6,5.6,0,59.6,0,119.3.1,178.9,0,3.8-1.1,6.5-3.9,9-16.4,14.7-33.5,28.4-51.9,40.6-1.8-1.8-1-4.1-1-6.2,0-71.8,0-143.6,0-215.4,0-4.7-1.4-5.9-5.9-5.6-10.3.8-20.6,1.5-30.9,1.7-22.5.6-44.9,0-67.3-1.6-6.2-.5-6.2-.4-6.2,6,0,71.6,0,143.3,0,214.9,0,2,.9,4.3-1,6.2-18.9-12.6-36.5-26.7-53.4-41.9-2.4-2.2-2.4-4.5-2.4-7.2v-184.2c-7.9,4.1-15.3,7.9-22.7,11.7-23.3,12.1-47.2,23-71.2,33.5-3.5,1.5-4.9,1.1-6.5-2.6-17.2-41.5-28.9-84.6-36.5-128.8-9.3-53.4-13.2-107.3-13.4-161.5,0-2.9.7-4.9,3.1-6.8,26.7-21.7,56.3-37.1,90.8-41.9,17.4-2.4,34.8-3,52.3-3.3,43.6-.9,81.1-16.3,112.4-46.5,2.7-2.6,4.1-3,7.1-.1,22.8,21.5,48.9,37.2,80.1,43.1,18.1,3.4,36.4,4.1,54.7,4.4,45.1.6,85.1,14.8,119.9,43.7,2.8,2.3,4,4.6,4,8.3-.5,68.4-6.4,136.3-22.2,203h0Z"/>
      <g>
        <path class="st0" d="M266.4,143v117.7c-6.4-5.1-4.8-9.5-4.8-13.2-.1-32-.2-64,0-96,0-7-1.3-10.2-9.4-10.3-16.2-.3-20.7-5.8-20.8-22.3,0-13.1,0-26.2,0-39.3.1-13.3,5.4-19.7,18.4-20.2,16.9-.6,33.9-.6,50.9,0,12.5.4,18.5,7.4,18.7,20.3.2,13.5.2,27,0,40.5-.2,14.5-5.7,20.3-19.9,21.3-8.4.6-15.8,12.4-12.5,20.6,3.3,8.1,4.1,15.5-3.3,21.8,5.2,6-6.7,13.8,2.6,20,5.6,3.8,3.3,10.8,2.1,16.1-1.3,5.9-4.1,11.1.2,17.3,1.6,2.3,1,6.9.2,10.2-1.7,6.8-7.1,10.6-13.7,10.2-7.4-.4-4-7.2-4.1-10.9-.3-30.5-.2-60.9-.2-91.4v-12.3c-1.5,0-2.9,0-4.4,0h0ZM276.5,109.4c4.3-1.2,7.9-4,7.7-9.3-.3-5.8-4.1-9.2-10-8.6-5.2.6-8.3,4.2-7.8,9.6.5,5.2,4,8,10.1,8.3Z"/>
        <path class="st0" d="M302.1,229.3c-2.9-10-5.7-19.6-8.3-29.2-.7-2.7-3.6-6.6.6-8,3.8-1.3,2.4,4.8,6.3,6.1-1.6-12.7-8.2-24-7.3-36.6.1-1.8-1.3-4.2-.5-5.4,1.9-3.1-1.4-9.8,5.7-9.4,5.7.2,5.4,5.4,7,9.1,1.9,4.3-1.7,8,.6,13,5.5,11.7,8.9,24.4,13.1,36.6,1.3,3.6,3.1,7.2,2.3,11.2-.8,4.1-3.4,6.9-7.1,8.4-4.7,2-5.6-2.7-7.9-4.9-2.6,2.4,1.3,7.1-4.6,9.1h0ZM301.7,203.1c-1.5,4.8.6,8,2.9,12.2,1.4-5.2-.6-8.4-2.9-12.2Z"/>
      </g>
      <g>
        <polygon class="st1" points="176 81.5 189.2 111.8 222.1 115 197.4 136.9 204.5 169.2 176 152.4 147.5 169.2 154.6 136.9 129.9 115 162.8 111.8 176 81.5"/>
        <polygon class="st1" points="71.9 108.2 83.4 134.5 111.9 137.3 90.5 156.3 96.6 184.4 71.9 169.8 47.1 184.4 53.3 156.3 31.8 137.3 60.4 134.5 71.9 108.2"/>
        <polygon class="st1" points="381.6 81.5 368.4 111.8 335.5 115 360.2 136.9 353.1 169.2 381.6 152.4 410.1 169.2 403 136.9 427.7 115 394.8 111.8 381.6 81.5"/>
        <polygon class="st1" points="485.8 108.2 474.3 134.5 445.7 137.3 467.2 156.3 461 184.4 485.8 169.8 510.5 184.4 504.3 156.3 525.8 137.3 497.2 134.5 485.8 108.2"/>
      </g>
    </g>
  </g>
</svg>