<?xml version="1.0" encoding="UTF-8"?>
<svg id="Layer_2" xmlns="http://www.w3.org/2000/svg" version="1.1" viewBox="0 0 707 707">
  <!-- Generator: Adobe Illustrator 29.7.1, SVG Export Plug-In . SVG Version: 2.1.1 Build 8)  -->
  <defs>
    <style>
      .st0 {
        fill: #ecf2b6;
      }

      .st1 {
        fill: #fff;
      }

      .st2 {
        fill: #fefefe;
      }

      .st3 {
        fill: #080416;
      }
    </style>
  </defs>
  <rect class="st3" width="707" height="707"/>
  <g id="Layer_1-2">
    <g>
      <g>
        <path class="st1" d="M353.5,685.6c-1.5,0-3-.5-4.6-1.4-40.7-24.5-80.2-49.1-115.3-80.8-50-45.2-88.5-102.2-114.6-169.4-16.9-43.4-28.8-89.9-36.4-142.1-6.3-43.2-9.6-86.7-10-129.3,0-7.3-.2-15-.4-22.4-.1-3.7,1.2-6.6,4.1-9.2,34-29.1,68.6-45.7,105.6-50.9,15.8-2.1,32.4-3.2,49.4-3.2h.4c45,0,82.1-16.2,113.4-49.6,3-3.2,5.1-5.6,8.4-5.6s5.2,2.1,8.6,5.5c21.4,21.7,41.6,35.1,63.5,42.1,18.3,5.9,37.4,7,54,7.5,27.8,1,52.8,2.4,77.4,10.7,25.3,8.5,49.6,22.8,74.3,43.8,3.3,2.8,3.7,6.1,3.7,8.7v35.8c-4.1,102.2-17.6,179.3-43.7,249.9-24.4,65.9-58.5,119.8-104.3,165-27.2,26.8-60.1,51.7-103.7,78.3-2.3,1.4-4.5,2.8-6.8,4.2-5.9,3.6-11.9,7.2-17.8,10.9h-.1c-1.3.8-3,1.6-4.9,1.6h0ZM353.3,43c-.2.2-.4.4-.7.7-18.5,18.2-37.2,30.9-57,38.9-22.9,9.3-47.3,10.8-68.4,11.6-16,.6-32.6,1.2-48.7,3.9-30.4,5.3-59.2,19.5-87.9,43.3-1,.9-1.4,1.6-1.4,3.8,0,46.7,3,92.4,9,135.9,7.5,54.4,19.6,102.6,37,147.2,28,71.8,71,131.6,128,177.6,27.4,22.1,57,40.6,90.2,60.7,0,0,0,0,0,0,.2-.1.5-.3.7-.4l.5-.3,2.6-1.6c16.8-10.3,34.2-20.9,50.8-32.1,57-38.4,100.2-83.6,132-138.4,38.9-66.9,61.9-144.4,72.4-244.1,2.3-22.5,3.8-44.6,5-65.4v-40.8c0-.6,0-.9-.8-1.5-24-20-47.6-33.2-72.2-40.2-21.5-6.2-43.8-7-65.2-7.7-15.7-.6-33.9-1.5-51.8-6.2-25.9-6.8-49.9-21.3-73.5-44.4-.2-.2-.4-.4-.6-.5Z"/>
        <path class="st1" d="M353.4,25.5c1.4,0,2.9,1.5,5.8,4.4,18.7,18.9,39.4,34.8,65.1,43.1,17.9,5.8,36.4,7.1,55.1,7.7,25.8.9,51.5,2.2,76.3,10.5,27.4,9.2,51.1,24.5,73,43.1,1.9,1.6,2.3,3.4,2.3,5.7h0v35.6c-3.4,84.9-13.8,168.5-43.5,248.7-22.9,61.8-56.2,117-103.4,163.5-30.9,30.5-66.1,55.2-103,77.7-8.2,5-16.5,10-24.7,15.1-1.1.6-2,1-2.9,1s-1.5-.2-2.5-.8c-40.1-24.1-79.8-48.8-114.7-80.4-51.6-46.7-88.5-103.3-113.6-167.9-17.7-45.6-29.1-92.8-36.2-141.2-6.2-42.7-9.6-85.6-10-128.8,0-7.5-.2-15-.4-22.5,0-2.6.7-4.3,2.7-6,30.1-25.7,63.7-44.4,103.6-50,16.2-2.2,32.5-3.2,48.8-3.2.1,0,.3,0,.4,0,46.3,0,84.8-17.3,116.3-50.9,2.7-2.9,4.1-4.4,5.5-4.4M353.4,670.7c1.2,0,2.2-.7,3.3-1.4,18-11,36.1-22,53.6-33.8,54.7-36.8,100-82.5,133.2-139.7,44.2-76,63.8-159.3,72.9-245.7,2.4-23,3.9-46.1,5.2-69.2h-.2v-37.4c0-2-.8-3.4-2.3-4.6-21.9-18.3-45.9-33-73.6-40.9-21.6-6.2-43.9-7.1-66.2-7.9-17.1-.6-34.2-1.7-50.9-6.1-28.2-7.4-51.2-23.3-71.7-43.4-1.4-1.3-2.4-1.9-3.4-1.9s-2.1.8-3.5,2.1c-16.3,16-34.3,29.4-55.7,38-21.5,8.7-44.2,10.5-67,11.3-16.5.6-32.9,1.2-49.2,4-34.2,6-63.4,22.3-89.8,44.2-2.3,2-2.8,4.1-2.8,6.9,0,45.7,2.8,91.1,9,136.4,7,50.7,18.6,100.3,37.2,148.1,27.6,70.9,69.8,131.3,129.2,179.3,28.5,23,59.5,42.1,90.6,61,.8.5,1.5.7,2.1.7M353.4,17.5c-5,0-8.1,3.4-11.4,6.9-15,16-31.8,28.2-50,36.2-18.3,8.1-38.7,12.2-60.5,12.2h-.4c-17.1,0-33.9,1.1-49.9,3.3-37.9,5.3-73.1,22.3-107.7,51.8-3.9,3.3-5.7,7.3-5.5,12.3.2,7.4.3,15,.4,22.4.4,42.8,3.8,86.5,10.1,129.8,7.7,52.5,19.7,99.2,36.7,142.9,12.9,33.3,29,64.3,47.7,92.2,19.4,29,42.3,55.4,68,78.7,35.3,32,75,56.7,115.9,81.3,2.1,1.3,4.4,2,6.6,2s5.3-1.1,6.9-2.1h.1c0,0,.1-.1.1-.1,5.9-3.7,12-7.4,17.9-10.9,2.3-1.4,4.5-2.7,6.8-4.1,43.9-26.8,77.1-51.8,104.5-78.8,23.4-23.1,44.3-49.1,62-77.5,16.9-27,31.4-56.9,43.3-88.9,14.2-38.4,24.7-79,32-124.1,6.2-38,10.1-79.5,12-127.1v-.2s0-.2,0-.2v-35.5h0c0-3.3-.5-8-5.1-11.9-25.1-21.3-49.9-35.9-75.6-44.6-25.2-8.4-50.5-9.9-78.6-10.9-16.3-.5-35.2-1.6-52.9-7.3-21.3-6.9-40.9-19.9-61.9-41.1-3.8-3.8-6.7-6.7-11.5-6.7h0ZM93.3,144.4c28.1-23.3,56.2-37.2,85.9-42.4,15.8-2.7,32.2-3.3,48.1-3.9,21.4-.7,46.2-2.3,69.7-11.9,19.6-7.9,38-20.2,56.3-37.7,23.3,22.3,47.3,36.5,73,43.2,18.2,4.8,36.7,5.8,52.7,6.4,21.2.8,43.2,1.6,64.3,7.6,23.9,6.8,46.8,19.5,70.1,38.9v39.6c-1.2,20.7-2.6,42.7-5,65.1-10.4,99.1-33.3,176.2-71.9,242.5-15.9,27.4-35.2,52.9-57.4,76-21.3,22.1-46,42.7-73.4,61.1-16.5,11.1-33.8,21.7-50.6,32l-1.8,1.1c-32.2-19.6-61.1-37.7-87.7-59.2-28.6-23.1-53.9-49.9-75-79.5-20.6-28.9-38-61.3-51.7-96.5-17.2-44.3-29.3-92.2-36.7-146.3-5.9-43.3-8.9-88.8-8.9-135.3s0-.7,0-.8h0Z"/>
      </g>
      <path class="st1" d="M621.7,143.4c0-2.1-.8-3.4-2.3-4.6-21.9-18.3-45.9-33-73.6-40.9-21.7-6.2-43.9-7.1-66.2-7.9-17.1-.6-34.2-1.7-50.9-6-28.2-7.4-51.3-23.3-71.7-43.4-2.9-2.9-4.2-2.4-6.9.2-16.3,15.9-34.4,29.3-55.7,38-21.6,8.7-44.2,10.5-67,11.3-16.5.6-32.9,1.2-49.2,4-34.3,6-63.4,22.3-89.8,44.2-2.4,1.9-2.9,4.1-2.9,6.9,0,45.7,2.8,91.1,9,136.4,7,50.7,18.5,100.3,37.2,148.1,27.6,70.9,69.8,131.3,129.2,179.3,28.4,23,59.4,42.1,90.6,61,2.3,1.4,3.7.3,5.4-.7,18-11,36.1-22,53.6-33.8,54.7-36.8,100-82.5,133.2-139.7,44.1-76,63.8-159.3,72.9-245.7,2.4-23,3.9-46.1,5.2-69.2v-37.5h-.1ZM593.5,351.4c-4.7,19.9-10.5,39.5-17.2,58.8-.5,1.5-1.2,2.9-2.6,4.3,0-12.7,0-77.7,0-90.4,0-3.5-.5-4.6-4.4-3.5-33,9.5-66.4,16.8-100.4,21.5-4,.6-3.6,2.9-3.6,5.6,0,59.6,0,171.6.1,231.2,0,3.8-1.1,6.5-3.9,9-16.4,14.7-33.5,28.4-51.9,40.6-1.8-1.8-1-4.1-1-6.2v-267.7c0-4.7-1.4-5.9-5.9-5.6-10.3.8-20.6,1.5-30.9,1.7-22.5.6-44.9,0-67.3-1.6-6.2-.5-6.2-.4-6.2,6v267.2c0,2,.9,4.3-1,6.2-18.9-12.6-36.5-26.7-53.4-41.9-2.4-2.2-2.4-4.5-2.4-7.2v-236.5c-7.9,4.1-69.9,87-93.9,97.5-3.5,1.5-4.9,1.1-6.5-2.6-17.2-41.5-28.9-84.6-36.5-128.8-9.3-53.4-13.2-107.3-13.4-161.5,0-2.9.7-4.9,3.1-6.8,26.7-21.7,56.3-37.1,90.8-41.9,17.4-2.4,34.8-3,52.3-3.3,43.6-.9,81.1-16.3,112.4-46.5,2.7-2.6,4.1-3,7.1,0,22.8,21.5,48.9,37.2,80.1,43.1,18.1,3.4,36.4,4.1,54.7,4.4,45.1.6,85.1,14.8,119.9,43.7,2.8,2.3,4,4.6,4,8.3-.5,68.4-6.4,136.3-22.2,203h0Z"/>
      <g>
        <path class="st0" d="M341.9,167.1v115.8c-6.3-5-4.7-9.4-4.7-13-.1-31.5-.2-62.9,0-94.4,0-6.9-1.3-10-9.3-10.1-15.9-.3-20.4-5.7-20.4-21.9v-38.7c.1-13.1,5.4-19.4,18.1-19.8,16.7-.6,33.4-.6,50,0,12.3.4,18.2,7.2,18.3,20,.2,13.3.2,26.5,0,39.8-.2,14.3-5.6,19.9-19.6,21-8.2.6-15.5,12.2-12.3,20.2,3.3,8,4,15.2-3.3,21.4,5.1,5.9-6.6,13.6,2.5,19.6,5.5,3.7,3.2,10.6,2.1,15.8-1.3,5.8-4.1,11,.2,17,1.6,2.3,1,6.8.2,10-1.7,6.7-7,10.4-13.4,10-7.3-.4-4-7-4-10.7-.3-30-.2-59.9-.2-89.9v-12.1h-4.3,0ZM351.8,134.1c4.2-1.1,7.8-3.9,7.5-9.1-.3-5.7-4-9.1-9.8-8.4-5.2.6-8.2,4.2-7.7,9.4.5,5.1,4,7.9,10,8.1Z"/>
        <path class="st0" d="M377,252c-2.8-9.9-5.6-19.3-8.1-28.7-.7-2.7-3.5-6.5.6-7.9,3.7-1.3,2.4,4.8,6.2,6-1.6-12.5-8-23.6-7.2-36.1.1-1.8-1.2-4.1-.5-5.3,1.9-3.1-1.4-9.6,5.6-9.3,5.6.2,5.3,5.3,6.9,9,1.8,4.2-1.7,7.9.6,12.8,5.4,11.5,8.7,24,12.9,36.1,1.2,3.6,3,7,2.3,11-.8,4-3.3,6.7-7,8.3-4.6,1.9-5.5-2.6-7.7-4.8-2.6,2.3,1.3,7-4.5,9h0ZM376.6,226.2c-1.4,4.8.6,7.9,2.8,12,1.3-5.1-.6-8.2-2.8-12Z"/>
      </g>
      <g>
        <polygon class="st2" points="250 116.8 263.5 147.7 297 151 271.8 173.3 279.1 206.2 250 189.1 221 206.2 228.3 173.3 203.1 151 236.6 147.7 250 116.8"/>
        <polygon class="st2" points="143.9 153.3 155.7 180.1 184.7 183 162.9 202.4 169.2 230.9 143.9 216.1 118.7 230.9 125 202.4 103.1 183 132.2 180.1 143.9 153.3"/>
        <polygon class="st2" points="459.6 116.8 446.1 147.7 412.6 151 437.8 173.3 430.6 206.2 459.6 189.1 488.6 206.2 481.4 173.3 506.6 151 473.1 147.7 459.6 116.8"/>
        <polygon class="st2" points="565.7 153.3 554 180.1 524.9 183 546.8 202.4 540.5 230.9 565.7 216.1 590.9 230.9 584.6 202.4 606.5 183 577.4 180.1 565.7 153.3"/>
      </g>
    </g>
  </g>
</svg>